# xmcd
#
# Track frame offsets:
#	150
#	4322
#	27572
#	45355
#	60332
#	76350
#	95270
#	114122
#	136240
#	150107
#	170285
#	187117
#	204815
#
# Disc length: 3039 seconds
#
# Revision: 0
# Processed by: cddbd v1.5.2PL0 Copyright (c) Steve Scherf et al.
# Submitted via: dBpowerAMP V4.0
#
DISCID=8e0bdd0d
DTITLE=바다 - Made in Sea
DYEAR=2006
DGENRE=Pop
TTITLE0=Intro
TTITLE1=FIND THE WAY
TTITLE2=우리 다시 (Diary)
TTITLE3=V.I.P. (Volume Instead Pause)
TTITLE4=Destiny
TTITLE5=사랑할거야 (Forever Love) (feat. COMMON GROUND)
TTITLE6=내게로 (One Step Slower) (feat. COMMON GROUND)
TTITLE7=Beyond (Talesweaver OST)
TTITLE8=곁에 있으니까 (Place of Sun)
TTITLE9=이름 없는 별 (Like a Shining Star)
TTITLE10=이렇게 난 (Here I am Waiting)
TTITLE11=V.I.P. Remix by east4A
TTITLE12=FIND THE WAY (Instrumental)
EXTD=
EXTT0=
EXTT1=
EXTT2=
EXTT3=
EXTT4=
EXTT5=
EXTT6=
EXTT7=
EXTT8=
EXTT9=
EXTT10=
EXTT11=
EXTT12=
PLAYORDER=
